# xmcd
#
# Track frame offsets:
#	150
#	12837
#	24587
#	37075
#	51700
#	64612
#	75437
#	88350
#	101175
#	115287
#
# Disc length: 1695 seconds
#
# Revision: 1
# Processed by: cddbd v1.5.2PL0 Copyright (c) Steve Scherf et al.
# Submitted via: audiograbber 1.83.01
#
DISCID=86069d0a
DTITLE=Gene Autry - Inducted Into The Hall Of Fame 1969
DYEAR=1969
DGENRE=Country and Western
TTITLE0=That Silver-Haired Daddy Of Mine
TTITLE1=Back In The Saddle Again
TTITLE2=At Mail Cail Today
TTITLE3=The End Of The Trail
TTITLE4=The Yellow Rose Of Thexas
TTITLE5=I´m Thinking Tonight Of My Blue Eyes
TTITLE6=I Which I Had Never Met Sunshine
TTITLE7=You´re The Only Star (In My Blue Heaven)
TTITLE8=Mexicali Rose
TTITLE9=Buttons And Bows
EXTD=
EXTT0=
EXTT1=
EXTT2=
EXTT3=
EXTT4=
EXTT5=
EXTT6=
EXTT7=
EXTT8=
EXTT9=
PLAYORDER=
